<mxfile host="app.diagrams.net" agent="Mozilla/5.0 (Macintosh; Intel Mac OS X 10_15_7) AppleWebKit/537.36 (KHTML, like Gecko) Chrome/129.0.0.0 Safari/537.36" scale="1" border="0" version="24.8.3">
  <diagram id="C5RBs43oDa-KdzZeNtuy" name="Page-1">
    <mxGraphModel dx="2741" dy="2236" grid="1" gridSize="10" guides="1" tooltips="1" connect="1" arrows="1" fold="1" page="1" pageScale="1" pageWidth="827" pageHeight="1169" math="0" shadow="0">
      <root>
        <mxCell id="WIyWlLk6GJQsqaUBKTNV-0" />
        <mxCell id="WIyWlLk6GJQsqaUBKTNV-1" parent="WIyWlLk6GJQsqaUBKTNV-0" />
        <mxCell id="5u7Is4vucsxlMqOVXEsp-0" value="Account Management(User)" style="swimlane;whiteSpace=wrap;html=1;align=center;" parent="WIyWlLk6GJQsqaUBKTNV-1" vertex="1">
          <mxGeometry x="-780" y="-750" width="590" height="1010" as="geometry" />
        </mxCell>
        <mxCell id="5u7Is4vucsxlMqOVXEsp-6" value="Place Order" style="rhombus;whiteSpace=wrap;html=1;shadow=0;fontFamily=Helvetica;fontSize=12;align=center;strokeWidth=1;spacing=6;spacingTop=-4;" parent="5u7Is4vucsxlMqOVXEsp-0" vertex="1">
          <mxGeometry x="119" y="300" width="100" height="80" as="geometry" />
        </mxCell>
        <mxCell id="5u7Is4vucsxlMqOVXEsp-13" value="" style="shape=image;html=1;verticalAlign=top;verticalLabelPosition=bottom;labelBackgroundColor=#ffffff;imageAspect=0;aspect=fixed;image=https://cdn4.iconfinder.com/data/icons/essential-app-2/16/record-round-circle-dot-128.png" parent="5u7Is4vucsxlMqOVXEsp-0" vertex="1">
          <mxGeometry x="150" y="30" width="38" height="38" as="geometry" />
        </mxCell>
        <mxCell id="5u7Is4vucsxlMqOVXEsp-3" value="Home Page&amp;nbsp;" style="rounded=1;whiteSpace=wrap;html=1;fontSize=12;glass=0;strokeWidth=1;shadow=0;" parent="5u7Is4vucsxlMqOVXEsp-0" vertex="1">
          <mxGeometry x="109" y="90" width="120" height="40" as="geometry" />
        </mxCell>
        <mxCell id="5u7Is4vucsxlMqOVXEsp-2" value="" style="rounded=0;html=1;jettySize=auto;orthogonalLoop=1;fontSize=11;endArrow=block;endFill=0;endSize=8;strokeWidth=1;shadow=0;labelBackgroundColor=none;edgeStyle=orthogonalEdgeStyle;" parent="5u7Is4vucsxlMqOVXEsp-0" target="5u7Is4vucsxlMqOVXEsp-6" edge="1">
          <mxGeometry relative="1" as="geometry">
            <mxPoint x="169" y="250" as="sourcePoint" />
          </mxGeometry>
        </mxCell>
        <mxCell id="5u7Is4vucsxlMqOVXEsp-14" value="" style="rounded=0;html=1;jettySize=auto;orthogonalLoop=1;fontSize=11;endArrow=block;endFill=0;endSize=8;strokeWidth=1;shadow=0;labelBackgroundColor=none;edgeStyle=orthogonalEdgeStyle;entryX=0.5;entryY=0;entryDx=0;entryDy=0;" parent="5u7Is4vucsxlMqOVXEsp-0" target="5u7Is4vucsxlMqOVXEsp-3" edge="1">
          <mxGeometry relative="1" as="geometry">
            <mxPoint x="168.5" y="60" as="sourcePoint" />
            <mxPoint x="169" y="100" as="targetPoint" />
          </mxGeometry>
        </mxCell>
        <mxCell id="5u7Is4vucsxlMqOVXEsp-16" value="Browse Categories" style="rounded=1;whiteSpace=wrap;html=1;fontSize=12;glass=0;strokeWidth=1;shadow=0;" parent="5u7Is4vucsxlMqOVXEsp-0" vertex="1">
          <mxGeometry x="108" y="160" width="121" height="40" as="geometry" />
        </mxCell>
        <mxCell id="5u7Is4vucsxlMqOVXEsp-17" value="" style="rounded=0;html=1;jettySize=auto;orthogonalLoop=1;fontSize=11;endArrow=block;endFill=0;endSize=8;strokeWidth=1;shadow=0;labelBackgroundColor=none;edgeStyle=orthogonalEdgeStyle;" parent="5u7Is4vucsxlMqOVXEsp-0" source="5u7Is4vucsxlMqOVXEsp-3" target="5u7Is4vucsxlMqOVXEsp-16" edge="1">
          <mxGeometry relative="1" as="geometry">
            <mxPoint x="199" y="170" as="sourcePoint" />
            <mxPoint x="199" y="240" as="targetPoint" />
          </mxGeometry>
        </mxCell>
        <mxCell id="5u7Is4vucsxlMqOVXEsp-5" value="No" style="edgeStyle=orthogonalEdgeStyle;rounded=0;html=1;jettySize=auto;orthogonalLoop=1;fontSize=11;endArrow=block;endFill=0;endSize=8;strokeWidth=1;shadow=0;labelBackgroundColor=none;entryX=1;entryY=0.5;entryDx=0;entryDy=0;exitX=1;exitY=0.5;exitDx=0;exitDy=0;" parent="5u7Is4vucsxlMqOVXEsp-0" source="5u7Is4vucsxlMqOVXEsp-6" edge="1">
          <mxGeometry y="10" relative="1" as="geometry">
            <mxPoint as="offset" />
            <mxPoint x="238" y="410" as="sourcePoint" />
            <mxPoint x="229" y="110" as="targetPoint" />
            <Array as="points">
              <mxPoint x="351" y="340" />
              <mxPoint x="351" y="110" />
            </Array>
          </mxGeometry>
        </mxCell>
        <mxCell id="5u7Is4vucsxlMqOVXEsp-23" value="Yes" style="rounded=0;html=1;jettySize=auto;orthogonalLoop=1;fontSize=11;endArrow=block;endFill=0;endSize=8;strokeWidth=1;shadow=0;labelBackgroundColor=none;edgeStyle=orthogonalEdgeStyle;exitX=0;exitY=0.5;exitDx=0;exitDy=0;" parent="5u7Is4vucsxlMqOVXEsp-0" source="5u7Is4vucsxlMqOVXEsp-6" edge="1">
          <mxGeometry y="20" relative="1" as="geometry">
            <mxPoint as="offset" />
            <mxPoint x="120.5" y="330" as="sourcePoint" />
            <mxPoint x="93" y="430" as="targetPoint" />
            <Array as="points">
              <mxPoint x="40" y="340" />
              <mxPoint x="40" y="430" />
            </Array>
          </mxGeometry>
        </mxCell>
        <mxCell id="5u7Is4vucsxlMqOVXEsp-25" value="Login/Sign Up&lt;br&gt;As User" style="rounded=1;whiteSpace=wrap;html=1;fontSize=12;glass=0;strokeWidth=1;shadow=0;" parent="5u7Is4vucsxlMqOVXEsp-0" vertex="1">
          <mxGeometry x="130" y="400" width="109" height="40" as="geometry" />
        </mxCell>
        <mxCell id="5u7Is4vucsxlMqOVXEsp-31" value="If Account&lt;div&gt;&amp;nbsp;Doesn&#39;t Exists&lt;/div&gt;" style="rhombus;whiteSpace=wrap;html=1;shadow=0;fontFamily=Helvetica;fontSize=12;align=center;strokeWidth=1;spacing=6;spacingTop=-4;" parent="5u7Is4vucsxlMqOVXEsp-0" vertex="1">
          <mxGeometry x="119" y="470" width="100" height="80" as="geometry" />
        </mxCell>
        <mxCell id="5u7Is4vucsxlMqOVXEsp-34" value="Yes" style="rounded=0;html=1;jettySize=auto;orthogonalLoop=1;fontSize=11;endArrow=block;endFill=0;endSize=8;strokeWidth=1;shadow=0;labelBackgroundColor=none;edgeStyle=orthogonalEdgeStyle;" parent="5u7Is4vucsxlMqOVXEsp-0" edge="1">
          <mxGeometry y="20" relative="1" as="geometry">
            <mxPoint as="offset" />
            <mxPoint x="119" y="510" as="sourcePoint" />
            <mxPoint x="98" y="570" as="targetPoint" />
            <Array as="points">
              <mxPoint x="98" y="510" />
            </Array>
          </mxGeometry>
        </mxCell>
        <mxCell id="5u7Is4vucsxlMqOVXEsp-38" value="Sign Up&lt;br&gt;Create Account&amp;nbsp;" style="rounded=1;whiteSpace=wrap;html=1;fontSize=12;glass=0;strokeWidth=1;shadow=0;" parent="5u7Is4vucsxlMqOVXEsp-0" vertex="1">
          <mxGeometry x="40" y="570" width="120" height="40" as="geometry" />
        </mxCell>
        <mxCell id="5u7Is4vucsxlMqOVXEsp-42" value="" style="rounded=0;html=1;jettySize=auto;orthogonalLoop=1;fontSize=11;endArrow=block;endFill=0;endSize=8;strokeWidth=1;shadow=0;labelBackgroundColor=none;edgeStyle=orthogonalEdgeStyle;" parent="5u7Is4vucsxlMqOVXEsp-0" edge="1">
          <mxGeometry relative="1" as="geometry">
            <mxPoint x="169" y="450" as="sourcePoint" />
            <mxPoint x="170" y="470" as="targetPoint" />
            <Array as="points">
              <mxPoint x="169" y="440" />
              <mxPoint x="169" y="440" />
            </Array>
          </mxGeometry>
        </mxCell>
        <mxCell id="5u7Is4vucsxlMqOVXEsp-49" value="No&lt;div&gt;&lt;br&gt;&lt;div&gt;&lt;br&gt;&lt;/div&gt;&lt;/div&gt;" style="rounded=0;html=1;jettySize=auto;orthogonalLoop=1;fontSize=11;endArrow=block;endFill=0;endSize=8;strokeWidth=1;shadow=0;labelBackgroundColor=none;edgeStyle=orthogonalEdgeStyle;" parent="5u7Is4vucsxlMqOVXEsp-0" edge="1">
          <mxGeometry y="20" relative="1" as="geometry">
            <mxPoint as="offset" />
            <mxPoint x="219.5" y="510" as="sourcePoint" />
            <mxPoint x="270.5" y="570" as="targetPoint" />
            <Array as="points">
              <mxPoint x="270.5" y="510" />
              <mxPoint x="270.5" y="570" />
            </Array>
          </mxGeometry>
        </mxCell>
        <mxCell id="5u7Is4vucsxlMqOVXEsp-52" value="Place Order" style="rounded=1;whiteSpace=wrap;html=1;fontSize=12;glass=0;strokeWidth=1;shadow=0;" parent="5u7Is4vucsxlMqOVXEsp-0" vertex="1">
          <mxGeometry x="210" y="660" width="120" height="40" as="geometry" />
        </mxCell>
        <mxCell id="5u7Is4vucsxlMqOVXEsp-53" value="" style="rounded=0;html=1;jettySize=auto;orthogonalLoop=1;fontSize=11;endArrow=block;endFill=0;endSize=8;strokeWidth=1;shadow=0;labelBackgroundColor=none;edgeStyle=orthogonalEdgeStyle;entryX=0;entryY=0.5;entryDx=0;entryDy=0;" parent="5u7Is4vucsxlMqOVXEsp-0" target="5u7Is4vucsxlMqOVXEsp-43" edge="1">
          <mxGeometry relative="1" as="geometry">
            <mxPoint x="160" y="590" as="sourcePoint" />
            <mxPoint x="160.5" y="640" as="targetPoint" />
            <Array as="points">
              <mxPoint x="160" y="570" />
              <mxPoint x="161" y="590" />
            </Array>
          </mxGeometry>
        </mxCell>
        <mxCell id="5u7Is4vucsxlMqOVXEsp-55" value="" style="rounded=0;html=1;jettySize=auto;orthogonalLoop=1;fontSize=11;endArrow=block;endFill=0;endSize=8;strokeWidth=1;shadow=0;labelBackgroundColor=none;edgeStyle=orthogonalEdgeStyle;entryX=0.5;entryY=0;entryDx=0;entryDy=0;" parent="5u7Is4vucsxlMqOVXEsp-0" source="5u7Is4vucsxlMqOVXEsp-43" target="5u7Is4vucsxlMqOVXEsp-52" edge="1">
          <mxGeometry relative="1" as="geometry">
            <mxPoint x="269.5" y="590" as="sourcePoint" />
            <mxPoint x="270" y="640" as="targetPoint" />
          </mxGeometry>
        </mxCell>
        <mxCell id="5u7Is4vucsxlMqOVXEsp-43" value="Login" style="rounded=1;whiteSpace=wrap;html=1;fontSize=12;glass=0;strokeWidth=1;shadow=0;" parent="5u7Is4vucsxlMqOVXEsp-0" vertex="1">
          <mxGeometry x="210" y="570" width="120" height="40" as="geometry" />
        </mxCell>
        <mxCell id="5u7Is4vucsxlMqOVXEsp-63" value="View Products" style="rounded=1;whiteSpace=wrap;html=1;fontSize=12;glass=0;strokeWidth=1;shadow=0;" parent="5u7Is4vucsxlMqOVXEsp-0" vertex="1">
          <mxGeometry x="109" y="230" width="111" height="40" as="geometry" />
        </mxCell>
        <mxCell id="5u7Is4vucsxlMqOVXEsp-65" value="" style="rounded=0;html=1;jettySize=auto;orthogonalLoop=1;fontSize=11;endArrow=block;endFill=0;endSize=8;strokeWidth=1;shadow=0;labelBackgroundColor=none;edgeStyle=orthogonalEdgeStyle;" parent="5u7Is4vucsxlMqOVXEsp-0" edge="1">
          <mxGeometry relative="1" as="geometry">
            <mxPoint x="168.5" y="200" as="sourcePoint" />
            <mxPoint x="168.5" y="230" as="targetPoint" />
          </mxGeometry>
        </mxCell>
        <mxCell id="5u7Is4vucsxlMqOVXEsp-106" value="" style="rounded=0;html=1;jettySize=auto;orthogonalLoop=1;fontSize=11;endArrow=block;endFill=0;endSize=8;strokeWidth=1;shadow=0;labelBackgroundColor=none;edgeStyle=orthogonalEdgeStyle;exitX=0;exitY=0.5;exitDx=0;exitDy=0;" parent="5u7Is4vucsxlMqOVXEsp-0" edge="1">
          <mxGeometry y="20" relative="1" as="geometry">
            <mxPoint as="offset" />
            <mxPoint x="108" y="110" as="sourcePoint" />
            <mxPoint x="93" y="410" as="targetPoint" />
            <Array as="points">
              <mxPoint x="29" y="110" />
              <mxPoint x="29" y="410" />
            </Array>
          </mxGeometry>
        </mxCell>
        <mxCell id="5u7Is4vucsxlMqOVXEsp-108" value="" style="shape=link;html=1;rounded=0;" parent="5u7Is4vucsxlMqOVXEsp-0" edge="1">
          <mxGeometry width="100" relative="1" as="geometry">
            <mxPoint x="93" y="440" as="sourcePoint" />
            <mxPoint x="93" y="400" as="targetPoint" />
          </mxGeometry>
        </mxCell>
        <mxCell id="5u7Is4vucsxlMqOVXEsp-111" value="" style="rounded=0;html=1;jettySize=auto;orthogonalLoop=1;fontSize=11;endArrow=block;endFill=0;endSize=8;strokeWidth=1;shadow=0;labelBackgroundColor=none;edgeStyle=orthogonalEdgeStyle;" parent="5u7Is4vucsxlMqOVXEsp-0" edge="1">
          <mxGeometry relative="1" as="geometry">
            <mxPoint x="93" y="420" as="sourcePoint" />
            <mxPoint x="133" y="420" as="targetPoint" />
          </mxGeometry>
        </mxCell>
        <mxCell id="5u7Is4vucsxlMqOVXEsp-104" value="" style="rounded=0;html=1;jettySize=auto;orthogonalLoop=1;fontSize=11;endArrow=block;endFill=0;endSize=8;strokeWidth=1;shadow=0;labelBackgroundColor=none;edgeStyle=orthogonalEdgeStyle;" parent="5u7Is4vucsxlMqOVXEsp-0" source="5u7Is4vucsxlMqOVXEsp-43" edge="1">
          <mxGeometry relative="1" as="geometry">
            <mxPoint x="290" y="410" as="sourcePoint" />
            <mxPoint x="435" y="630" as="targetPoint" />
          </mxGeometry>
        </mxCell>
        <mxCell id="5u7Is4vucsxlMqOVXEsp-122" value="Delete Account" style="rhombus;whiteSpace=wrap;html=1;shadow=0;fontFamily=Helvetica;fontSize=12;align=center;strokeWidth=1;spacing=6;spacingTop=-4;" parent="5u7Is4vucsxlMqOVXEsp-0" vertex="1">
          <mxGeometry x="390" y="720" width="90" height="80" as="geometry" />
        </mxCell>
        <mxCell id="5u7Is4vucsxlMqOVXEsp-123" value="Yes" style="rounded=0;html=1;jettySize=auto;orthogonalLoop=1;fontSize=11;endArrow=block;endFill=0;endSize=8;strokeWidth=1;shadow=0;labelBackgroundColor=none;edgeStyle=orthogonalEdgeStyle;" parent="5u7Is4vucsxlMqOVXEsp-0" edge="1">
          <mxGeometry y="20" relative="1" as="geometry">
            <mxPoint as="offset" />
            <mxPoint x="390" y="760" as="sourcePoint" />
            <mxPoint x="369" y="820" as="targetPoint" />
            <Array as="points">
              <mxPoint x="369" y="760" />
            </Array>
          </mxGeometry>
        </mxCell>
        <mxCell id="5u7Is4vucsxlMqOVXEsp-124" value="No&lt;div&gt;&lt;br&gt;&lt;div&gt;&lt;br&gt;&lt;/div&gt;&lt;/div&gt;" style="rounded=0;html=1;jettySize=auto;orthogonalLoop=1;fontSize=11;endArrow=block;endFill=0;endSize=8;strokeWidth=1;shadow=0;labelBackgroundColor=none;edgeStyle=orthogonalEdgeStyle;entryX=1;entryY=0.5;entryDx=0;entryDy=0;" parent="5u7Is4vucsxlMqOVXEsp-0" target="AFHdcMxETkSCcAUdp-tD-3" edge="1">
          <mxGeometry y="20" relative="1" as="geometry">
            <mxPoint as="offset" />
            <mxPoint x="480" y="760" as="sourcePoint" />
            <mxPoint x="510" y="820" as="targetPoint" />
            <Array as="points">
              <mxPoint x="510" y="760" />
              <mxPoint x="510" y="650" />
            </Array>
          </mxGeometry>
        </mxCell>
        <mxCell id="AFHdcMxETkSCcAUdp-tD-3" value="Manage Account" style="rounded=1;whiteSpace=wrap;html=1;fontSize=12;glass=0;strokeWidth=1;shadow=0;" parent="5u7Is4vucsxlMqOVXEsp-0" vertex="1">
          <mxGeometry x="375" y="630" width="120" height="40" as="geometry" />
        </mxCell>
        <mxCell id="AFHdcMxETkSCcAUdp-tD-4" value="" style="rounded=0;html=1;jettySize=auto;orthogonalLoop=1;fontSize=11;endArrow=block;endFill=0;endSize=8;strokeWidth=1;shadow=0;labelBackgroundColor=none;edgeStyle=orthogonalEdgeStyle;entryX=0.5;entryY=0;entryDx=0;entryDy=0;" parent="5u7Is4vucsxlMqOVXEsp-0" target="5u7Is4vucsxlMqOVXEsp-122" edge="1">
          <mxGeometry relative="1" as="geometry">
            <mxPoint x="434.5" y="670" as="sourcePoint" />
            <mxPoint x="435" y="700" as="targetPoint" />
          </mxGeometry>
        </mxCell>
        <mxCell id="AFHdcMxETkSCcAUdp-tD-8" value="Confirm&amp;nbsp;" style="rounded=1;whiteSpace=wrap;html=1;fontSize=12;glass=0;strokeWidth=1;shadow=0;" parent="5u7Is4vucsxlMqOVXEsp-0" vertex="1">
          <mxGeometry x="320" y="820" width="100" height="30" as="geometry" />
        </mxCell>
        <mxCell id="AFHdcMxETkSCcAUdp-tD-9" value="" style="rounded=0;html=1;jettySize=auto;orthogonalLoop=1;fontSize=11;endArrow=block;endFill=0;endSize=8;strokeWidth=1;shadow=0;labelBackgroundColor=none;edgeStyle=orthogonalEdgeStyle;entryX=0.5;entryY=0;entryDx=0;entryDy=0;" parent="5u7Is4vucsxlMqOVXEsp-0" edge="1">
          <mxGeometry relative="1" as="geometry">
            <mxPoint x="270" y="700" as="sourcePoint" />
            <mxPoint x="270" y="750" as="targetPoint" />
          </mxGeometry>
        </mxCell>
        <mxCell id="AFHdcMxETkSCcAUdp-tD-43" value="Checkout" style="rounded=1;whiteSpace=wrap;html=1;fontSize=12;glass=0;strokeWidth=1;shadow=0;" parent="5u7Is4vucsxlMqOVXEsp-0" vertex="1">
          <mxGeometry x="210" y="750" width="120" height="40" as="geometry" />
        </mxCell>
        <mxCell id="AFHdcMxETkSCcAUdp-tD-44" value="Account Deleted." style="rounded=1;whiteSpace=wrap;html=1;fontSize=12;glass=0;strokeWidth=1;shadow=0;" parent="5u7Is4vucsxlMqOVXEsp-0" vertex="1">
          <mxGeometry x="320" y="900" width="100" height="30" as="geometry" />
        </mxCell>
        <mxCell id="AFHdcMxETkSCcAUdp-tD-50" value="" style="rounded=0;html=1;jettySize=auto;orthogonalLoop=1;fontSize=11;endArrow=block;endFill=0;endSize=8;strokeWidth=1;shadow=0;labelBackgroundColor=none;edgeStyle=orthogonalEdgeStyle;entryX=0.5;entryY=0;entryDx=0;entryDy=0;" parent="5u7Is4vucsxlMqOVXEsp-0" edge="1">
          <mxGeometry relative="1" as="geometry">
            <mxPoint x="369.5" y="850" as="sourcePoint" />
            <mxPoint x="369.5" y="900" as="targetPoint" />
          </mxGeometry>
        </mxCell>
        <mxCell id="AFHdcMxETkSCcAUdp-tD-51" value="" style="ellipse;html=1;shape=endState;fillColor=#000000;strokeColor=#ff0000;" parent="5u7Is4vucsxlMqOVXEsp-0" vertex="1">
          <mxGeometry x="255" y="950" width="30" height="30" as="geometry" />
        </mxCell>
        <mxCell id="AFHdcMxETkSCcAUdp-tD-52" value="" style="rounded=0;html=1;jettySize=auto;orthogonalLoop=1;fontSize=11;endArrow=block;endFill=0;endSize=8;strokeWidth=1;shadow=0;labelBackgroundColor=none;edgeStyle=orthogonalEdgeStyle;entryX=0.5;entryY=0;entryDx=0;entryDy=0;exitX=0.5;exitY=1;exitDx=0;exitDy=0;" parent="5u7Is4vucsxlMqOVXEsp-0" source="AFHdcMxETkSCcAUdp-tD-43" target="AFHdcMxETkSCcAUdp-tD-51" edge="1">
          <mxGeometry relative="1" as="geometry">
            <mxPoint x="269.17" y="770" as="sourcePoint" />
            <mxPoint x="269.67" y="900" as="targetPoint" />
          </mxGeometry>
        </mxCell>
        <mxCell id="AFHdcMxETkSCcAUdp-tD-53" value="" style="rounded=0;html=1;jettySize=auto;orthogonalLoop=1;fontSize=11;endArrow=block;endFill=0;endSize=8;strokeWidth=1;shadow=0;labelBackgroundColor=none;edgeStyle=orthogonalEdgeStyle;entryX=0;entryY=0.5;entryDx=0;entryDy=0;" parent="5u7Is4vucsxlMqOVXEsp-0" target="5u7Is4vucsxlMqOVXEsp-68" edge="1">
          <mxGeometry relative="1" as="geometry">
            <mxPoint x="190" y="50" as="sourcePoint" />
            <mxPoint x="750" y="80" as="targetPoint" />
          </mxGeometry>
        </mxCell>
        <mxCell id="IQwxHEViaEDwBF2lhAOL-0" value="" style="rounded=0;html=1;jettySize=auto;orthogonalLoop=1;fontSize=11;endArrow=block;endFill=0;endSize=8;strokeWidth=1;shadow=0;labelBackgroundColor=none;edgeStyle=orthogonalEdgeStyle;" parent="5u7Is4vucsxlMqOVXEsp-0" edge="1">
          <mxGeometry relative="1" as="geometry">
            <mxPoint x="495" y="640" as="sourcePoint" />
            <mxPoint x="510" y="960" as="targetPoint" />
            <Array as="points">
              <mxPoint x="555" y="640.44" />
            </Array>
          </mxGeometry>
        </mxCell>
        <mxCell id="IQwxHEViaEDwBF2lhAOL-3" value="Logout" style="rounded=1;whiteSpace=wrap;html=1;fontSize=12;glass=0;strokeWidth=1;shadow=0;" parent="5u7Is4vucsxlMqOVXEsp-0" vertex="1">
          <mxGeometry x="410" y="940" width="100" height="40" as="geometry" />
        </mxCell>
        <mxCell id="5u7Is4vucsxlMqOVXEsp-120" value="" style="rounded=0;html=1;jettySize=auto;orthogonalLoop=1;fontSize=11;endArrow=block;endFill=0;endSize=8;strokeWidth=1;shadow=0;labelBackgroundColor=none;edgeStyle=orthogonalEdgeStyle;exitX=0;exitY=0.5;exitDx=0;exitDy=0;" parent="5u7Is4vucsxlMqOVXEsp-0" source="IQwxHEViaEDwBF2lhAOL-3" edge="1">
          <mxGeometry relative="1" as="geometry">
            <mxPoint x="373" y="967.92" as="sourcePoint" />
            <mxPoint x="285" y="962.09" as="targetPoint" />
            <Array as="points">
              <mxPoint x="410" y="962" />
            </Array>
          </mxGeometry>
        </mxCell>
        <mxCell id="5u7Is4vucsxlMqOVXEsp-1" value="Inventory Management(Admin)" style="swimlane;whiteSpace=wrap;html=1;" parent="WIyWlLk6GJQsqaUBKTNV-1" vertex="1">
          <mxGeometry x="-182" y="-750" width="596" height="1010" as="geometry" />
        </mxCell>
        <mxCell id="5u7Is4vucsxlMqOVXEsp-68" value="&lt;font style=&quot;font-size: 10px;&quot;&gt;&lt;b&gt;Login&lt;/b&gt;&lt;/font&gt;&lt;div&gt;&lt;font style=&quot;font-size: 10px;&quot;&gt;&lt;b&gt;as Admin&amp;nbsp;&lt;/b&gt;&lt;/font&gt;&lt;/div&gt;" style="rounded=1;whiteSpace=wrap;html=1;fontSize=12;glass=0;strokeWidth=1;shadow=0;" parent="5u7Is4vucsxlMqOVXEsp-1" vertex="1">
          <mxGeometry x="184.5" y="100" width="120" height="30" as="geometry" />
        </mxCell>
        <mxCell id="5u7Is4vucsxlMqOVXEsp-101" value="&lt;font style=&quot;font-size: 10px;&quot;&gt;&lt;b&gt;Browse Categories&lt;/b&gt;&lt;/font&gt;" style="rounded=1;whiteSpace=wrap;html=1;fontSize=12;glass=0;strokeWidth=1;shadow=0;" parent="5u7Is4vucsxlMqOVXEsp-1" vertex="1">
          <mxGeometry x="143" y="340" width="121" height="40" as="geometry" />
        </mxCell>
        <mxCell id="5u7Is4vucsxlMqOVXEsp-115" value="&lt;font style=&quot;font-size: 10px;&quot;&gt;&lt;b&gt;Update / Delete /Add Categories&lt;/b&gt;&lt;/font&gt;" style="rounded=1;whiteSpace=wrap;html=1;fontSize=12;glass=0;strokeWidth=1;shadow=0;" parent="5u7Is4vucsxlMqOVXEsp-1" vertex="1">
          <mxGeometry x="10" y="570" width="110" height="40" as="geometry" />
        </mxCell>
        <mxCell id="5u7Is4vucsxlMqOVXEsp-117" value="&lt;b style=&quot;--un-rotate: 0; --un-rotate-x: 0; --un-rotate-y: 0; --un-rotate-z: 0; --un-scale-x: 1; --un-scale-y: 1; --un-scale-z: 1; --un-skew-x: 0; --un-skew-y: 0; --un-translate-x: 0; --un-translate-y: 0; --un-translate-z: 0; --un-pan-x: ; --un-pan-y: ; --un-pinch-zoom: ; --un-scroll-snap-strictness: proximity; --un-ordinal: ; --un-slashed-zero: ; --un-numeric-figure: ; --un-numeric-spacing: ; --un-numeric-fraction: ; --un-border-spacing-x: 0; --un-border-spacing-y: 0; --un-ring-offset-shadow: 0 0 rgb(0 0 0 / 0); --un-ring-shadow: 0 0 rgb(0 0 0 / 0); --un-shadow-inset: ; --un-shadow: 0 0 rgb(0 0 0 / 0); --un-ring-inset: ; --un-ring-offset-width: 0px; --un-ring-offset-color: #fff; --un-ring-width: 0px; --un-ring-color: rgb(147 197 253 / .5); --un-blur: ; --un-brightness: ; --un-contrast: ; --un-drop-shadow: ; --un-grayscale: ; --un-hue-rotate: ; --un-invert: ; --un-saturate: ; --un-sepia: ; --un-backdrop-blur: ; --un-backdrop-brightness: ; --un-backdrop-contrast: ; --un-backdrop-grayscale: ; --un-backdrop-hue-rotate: ; --un-backdrop-invert: ; --un-backdrop-opacity: ; --un-backdrop-saturate: ; --un-backdrop-sepia: ; font-size: 10px;&quot;&gt;Inventory&lt;/b&gt;&lt;b&gt;&lt;font style=&quot;font-size: 10px;&quot;&gt;&amp;nbsp;Analytics&lt;/font&gt;&lt;/b&gt;" style="rounded=1;whiteSpace=wrap;html=1;fontSize=12;glass=0;strokeWidth=1;shadow=0;" parent="5u7Is4vucsxlMqOVXEsp-1" vertex="1">
          <mxGeometry x="393" y="330" width="121" height="50" as="geometry" />
        </mxCell>
        <mxCell id="5u7Is4vucsxlMqOVXEsp-114" value="&lt;font style=&quot;font-size: 10px;&quot;&gt;&lt;b&gt;Admin Dashboard&lt;/b&gt;&lt;/font&gt;" style="rounded=1;whiteSpace=wrap;html=1;fontSize=12;glass=0;strokeWidth=1;shadow=0;" parent="5u7Is4vucsxlMqOVXEsp-1" vertex="1">
          <mxGeometry x="180" y="180" width="130" height="30" as="geometry" />
        </mxCell>
        <mxCell id="5u7Is4vucsxlMqOVXEsp-119" value="" style="rounded=0;html=1;jettySize=auto;orthogonalLoop=1;fontSize=11;endArrow=block;endFill=0;endSize=8;strokeWidth=1;shadow=0;labelBackgroundColor=none;edgeStyle=orthogonalEdgeStyle;entryX=0.5;entryY=0;entryDx=0;entryDy=0;" parent="5u7Is4vucsxlMqOVXEsp-1" target="5u7Is4vucsxlMqOVXEsp-114" edge="1">
          <mxGeometry relative="1" as="geometry">
            <mxPoint x="244" y="130" as="sourcePoint" />
            <mxPoint x="245" y="160" as="targetPoint" />
          </mxGeometry>
        </mxCell>
        <mxCell id="AFHdcMxETkSCcAUdp-tD-0" value="&lt;font style=&quot;font-size: 10px;&quot;&gt;&lt;b&gt;Inventory Management&lt;/b&gt;&lt;/font&gt;" style="rounded=1;whiteSpace=wrap;html=1;fontSize=12;glass=0;strokeWidth=1;shadow=0;" parent="5u7Is4vucsxlMqOVXEsp-1" vertex="1">
          <mxGeometry x="180" y="240" width="130" height="40" as="geometry" />
        </mxCell>
        <mxCell id="IQwxHEViaEDwBF2lhAOL-8" value="Update Categories" style="rhombus;whiteSpace=wrap;html=1;shadow=0;fontFamily=Helvetica;fontSize=12;align=center;strokeWidth=1;spacing=6;spacingTop=-4;" parent="5u7Is4vucsxlMqOVXEsp-1" vertex="1">
          <mxGeometry x="86" y="410" width="84" height="60" as="geometry" />
        </mxCell>
        <mxCell id="IQwxHEViaEDwBF2lhAOL-9" value="Yes" style="rounded=0;html=1;jettySize=auto;orthogonalLoop=1;fontSize=11;endArrow=block;endFill=0;endSize=8;strokeWidth=1;shadow=0;labelBackgroundColor=none;edgeStyle=orthogonalEdgeStyle;" parent="5u7Is4vucsxlMqOVXEsp-1" edge="1">
          <mxGeometry y="20" relative="1" as="geometry">
            <mxPoint as="offset" />
            <mxPoint x="61" y="440" as="sourcePoint" />
            <mxPoint x="41" y="570" as="targetPoint" />
            <Array as="points">
              <mxPoint x="90" y="440" />
              <mxPoint x="41" y="440" />
            </Array>
          </mxGeometry>
        </mxCell>
        <mxCell id="IQwxHEViaEDwBF2lhAOL-11" value="No&lt;div&gt;&lt;br&gt;&lt;div&gt;&lt;br&gt;&lt;/div&gt;&lt;/div&gt;" style="rounded=0;html=1;jettySize=auto;orthogonalLoop=1;fontSize=11;endArrow=block;endFill=0;endSize=8;strokeWidth=1;shadow=0;labelBackgroundColor=none;edgeStyle=orthogonalEdgeStyle;exitX=1;exitY=0.5;exitDx=0;exitDy=0;entryX=0;entryY=0.5;entryDx=0;entryDy=0;" parent="5u7Is4vucsxlMqOVXEsp-1" source="IQwxHEViaEDwBF2lhAOL-8" target="IQwxHEViaEDwBF2lhAOL-21" edge="1">
          <mxGeometry y="20" relative="1" as="geometry">
            <mxPoint as="offset" />
            <mxPoint x="174" y="440" as="sourcePoint" />
            <mxPoint x="224" y="570" as="targetPoint" />
            <Array as="points">
              <mxPoint x="260" y="440" />
              <mxPoint x="260" y="440" />
            </Array>
          </mxGeometry>
        </mxCell>
        <mxCell id="IQwxHEViaEDwBF2lhAOL-20" value="" style="rounded=0;html=1;jettySize=auto;orthogonalLoop=1;fontSize=11;endArrow=block;endFill=0;endSize=8;strokeWidth=1;shadow=0;labelBackgroundColor=none;edgeStyle=orthogonalEdgeStyle;" parent="5u7Is4vucsxlMqOVXEsp-1" edge="1">
          <mxGeometry relative="1" as="geometry">
            <mxPoint x="264" y="360" as="sourcePoint" />
            <mxPoint x="366" y="420" as="targetPoint" />
          </mxGeometry>
        </mxCell>
        <mxCell id="IQwxHEViaEDwBF2lhAOL-21" value="&lt;font style=&quot;font-size: 10px;&quot;&gt;&lt;b&gt;Browse Products by Category&lt;/b&gt;&lt;/font&gt;" style="rounded=1;whiteSpace=wrap;html=1;fontSize=12;glass=0;strokeWidth=1;shadow=0;" parent="5u7Is4vucsxlMqOVXEsp-1" vertex="1">
          <mxGeometry x="310" y="420" width="130" height="40" as="geometry" />
        </mxCell>
        <mxCell id="IQwxHEViaEDwBF2lhAOL-23" value="Update Products" style="rhombus;whiteSpace=wrap;html=1;shadow=0;fontFamily=Helvetica;fontSize=12;align=center;strokeWidth=1;spacing=6;spacingTop=-4;" parent="5u7Is4vucsxlMqOVXEsp-1" vertex="1">
          <mxGeometry x="345" y="510" width="84" height="60" as="geometry" />
        </mxCell>
        <mxCell id="IQwxHEViaEDwBF2lhAOL-24" value="Yes" style="rounded=0;html=1;jettySize=auto;orthogonalLoop=1;fontSize=11;endArrow=block;endFill=0;endSize=8;strokeWidth=1;shadow=0;labelBackgroundColor=none;edgeStyle=orthogonalEdgeStyle;" parent="5u7Is4vucsxlMqOVXEsp-1" edge="1">
          <mxGeometry y="20" relative="1" as="geometry">
            <mxPoint as="offset" />
            <mxPoint x="316" y="540" as="sourcePoint" />
            <mxPoint x="296" y="670" as="targetPoint" />
            <Array as="points">
              <mxPoint x="345" y="540" />
              <mxPoint x="296" y="540" />
            </Array>
          </mxGeometry>
        </mxCell>
        <mxCell id="IQwxHEViaEDwBF2lhAOL-25" value="No&lt;div&gt;&lt;br&gt;&lt;div&gt;&lt;br&gt;&lt;/div&gt;&lt;/div&gt;" style="rounded=0;html=1;jettySize=auto;orthogonalLoop=1;fontSize=11;endArrow=block;endFill=0;endSize=8;strokeWidth=1;shadow=0;labelBackgroundColor=none;edgeStyle=orthogonalEdgeStyle;" parent="5u7Is4vucsxlMqOVXEsp-1" edge="1">
          <mxGeometry y="20" relative="1" as="geometry">
            <mxPoint as="offset" />
            <mxPoint x="429" y="540" as="sourcePoint" />
            <mxPoint x="479" y="670" as="targetPoint" />
            <Array as="points">
              <mxPoint x="480" y="540" />
              <mxPoint x="480" y="600" />
            </Array>
          </mxGeometry>
        </mxCell>
        <mxCell id="IQwxHEViaEDwBF2lhAOL-26" value="&lt;b&gt;&lt;font style=&quot;font-size: 10px;&quot;&gt;Update/Delete/Add Products&lt;/font&gt;&lt;/b&gt;" style="rounded=1;whiteSpace=wrap;html=1;fontSize=12;glass=0;strokeWidth=1;shadow=0;" parent="5u7Is4vucsxlMqOVXEsp-1" vertex="1">
          <mxGeometry x="246" y="670" width="110" height="50" as="geometry" />
        </mxCell>
        <mxCell id="IQwxHEViaEDwBF2lhAOL-28" value="" style="rounded=0;html=1;jettySize=auto;orthogonalLoop=1;fontSize=11;endArrow=block;endFill=0;endSize=8;strokeWidth=1;shadow=0;labelBackgroundColor=none;edgeStyle=orthogonalEdgeStyle;exitX=0.168;exitY=1.081;exitDx=0;exitDy=0;exitPerimeter=0;" parent="5u7Is4vucsxlMqOVXEsp-1" edge="1">
          <mxGeometry relative="1" as="geometry">
            <mxPoint x="244.67000000000002" y="210" as="sourcePoint" />
            <mxPoint x="244" y="239" as="targetPoint" />
          </mxGeometry>
        </mxCell>
        <mxCell id="IQwxHEViaEDwBF2lhAOL-29" value="&lt;font style=&quot;font-size: 10px;&quot;&gt;&lt;b&gt;View all Products&lt;/b&gt;&lt;/font&gt;" style="rounded=1;whiteSpace=wrap;html=1;fontSize=12;glass=0;strokeWidth=1;shadow=0;" parent="5u7Is4vucsxlMqOVXEsp-1" vertex="1">
          <mxGeometry x="429" y="670" width="111" height="40" as="geometry" />
        </mxCell>
        <mxCell id="IQwxHEViaEDwBF2lhAOL-30" value="" style="rounded=0;html=1;jettySize=auto;orthogonalLoop=1;fontSize=11;endArrow=block;endFill=0;endSize=8;strokeWidth=1;shadow=0;labelBackgroundColor=none;edgeStyle=orthogonalEdgeStyle;exitX=0;exitY=0.5;exitDx=0;exitDy=0;" parent="5u7Is4vucsxlMqOVXEsp-1" source="5u7Is4vucsxlMqOVXEsp-101" edge="1">
          <mxGeometry y="20" relative="1" as="geometry">
            <mxPoint as="offset" />
            <mxPoint x="147" y="350" as="sourcePoint" />
            <mxPoint x="126" y="410" as="targetPoint" />
            <Array as="points">
              <mxPoint x="126" y="360" />
            </Array>
          </mxGeometry>
        </mxCell>
        <mxCell id="IQwxHEViaEDwBF2lhAOL-36" value="" style="rounded=0;html=1;jettySize=auto;orthogonalLoop=1;fontSize=11;endArrow=block;endFill=0;endSize=8;strokeWidth=1;shadow=0;labelBackgroundColor=none;edgeStyle=orthogonalEdgeStyle;entryX=0.5;entryY=0;entryDx=0;entryDy=0;" parent="5u7Is4vucsxlMqOVXEsp-1" edge="1">
          <mxGeometry relative="1" as="geometry">
            <mxPoint x="386.16999999999996" y="460" as="sourcePoint" />
            <mxPoint x="387.16999999999996" y="510" as="targetPoint" />
          </mxGeometry>
        </mxCell>
        <mxCell id="IQwxHEViaEDwBF2lhAOL-42" value="" style="rounded=0;html=1;jettySize=auto;orthogonalLoop=1;fontSize=11;endArrow=block;endFill=0;endSize=8;strokeWidth=1;shadow=0;labelBackgroundColor=none;edgeStyle=orthogonalEdgeStyle;exitX=1;exitY=0.5;exitDx=0;exitDy=0;" parent="5u7Is4vucsxlMqOVXEsp-1" source="AFHdcMxETkSCcAUdp-tD-0" edge="1">
          <mxGeometry relative="1" as="geometry">
            <mxPoint x="290" y="310" as="sourcePoint" />
            <mxPoint x="420" y="330" as="targetPoint" />
          </mxGeometry>
        </mxCell>
        <mxCell id="IQwxHEViaEDwBF2lhAOL-43" value="" style="rounded=0;html=1;jettySize=auto;orthogonalLoop=1;fontSize=11;endArrow=block;endFill=0;endSize=8;strokeWidth=1;shadow=0;labelBackgroundColor=none;edgeStyle=orthogonalEdgeStyle;exitX=1;exitY=0.5;exitDx=0;exitDy=0;" parent="5u7Is4vucsxlMqOVXEsp-1" edge="1">
          <mxGeometry relative="1" as="geometry">
            <mxPoint x="310" y="190" as="sourcePoint" />
            <mxPoint x="490" y="250" as="targetPoint" />
          </mxGeometry>
        </mxCell>
        <mxCell id="IQwxHEViaEDwBF2lhAOL-44" value="&lt;b&gt;&lt;font style=&quot;font-size: 10px;&quot;&gt;Manage Account&lt;/font&gt;&lt;/b&gt;" style="rounded=1;whiteSpace=wrap;html=1;fontSize=12;glass=0;strokeWidth=1;shadow=0;" parent="5u7Is4vucsxlMqOVXEsp-1" vertex="1">
          <mxGeometry x="429" y="250" width="151" height="50" as="geometry" />
        </mxCell>
        <mxCell id="IQwxHEViaEDwBF2lhAOL-47" value="" style="rounded=0;html=1;jettySize=auto;orthogonalLoop=1;fontSize=11;endArrow=block;endFill=0;endSize=8;strokeWidth=1;shadow=0;labelBackgroundColor=none;edgeStyle=orthogonalEdgeStyle;" parent="5u7Is4vucsxlMqOVXEsp-1" edge="1">
          <mxGeometry relative="1" as="geometry">
            <mxPoint x="540" y="300" as="sourcePoint" />
            <mxPoint x="490" y="890" as="targetPoint" />
            <Array as="points">
              <mxPoint x="561" y="301" />
              <mxPoint x="561" y="890" />
            </Array>
          </mxGeometry>
        </mxCell>
        <mxCell id="IQwxHEViaEDwBF2lhAOL-48" value="Logout" style="rounded=1;whiteSpace=wrap;html=1;fontSize=12;glass=0;strokeWidth=1;shadow=0;" parent="5u7Is4vucsxlMqOVXEsp-1" vertex="1">
          <mxGeometry x="390" y="870" width="100" height="40" as="geometry" />
        </mxCell>
        <mxCell id="IQwxHEViaEDwBF2lhAOL-49" value="" style="ellipse;html=1;shape=endState;fillColor=#000000;strokeColor=#ff0000;" parent="5u7Is4vucsxlMqOVXEsp-1" vertex="1">
          <mxGeometry x="234" y="880" width="30" height="30" as="geometry" />
        </mxCell>
        <mxCell id="IQwxHEViaEDwBF2lhAOL-50" value="" style="rounded=0;html=1;jettySize=auto;orthogonalLoop=1;fontSize=11;endArrow=block;endFill=0;endSize=8;strokeWidth=1;shadow=0;labelBackgroundColor=none;edgeStyle=orthogonalEdgeStyle;exitX=0;exitY=0.5;exitDx=0;exitDy=0;" parent="5u7Is4vucsxlMqOVXEsp-1" edge="1">
          <mxGeometry relative="1" as="geometry">
            <mxPoint x="390" y="893.92" as="sourcePoint" />
            <mxPoint x="265" y="896.01" as="targetPoint" />
            <Array as="points">
              <mxPoint x="390" y="895.92" />
            </Array>
          </mxGeometry>
        </mxCell>
        <mxCell id="-VJvyGPl3YeHZAWOOZER-6" value="" style="rounded=0;html=1;jettySize=auto;orthogonalLoop=1;fontSize=11;endArrow=block;endFill=0;endSize=8;strokeWidth=1;shadow=0;labelBackgroundColor=none;edgeStyle=orthogonalEdgeStyle;exitX=0;exitY=1;exitDx=0;exitDy=0;entryX=0;entryY=0.25;entryDx=0;entryDy=0;" parent="5u7Is4vucsxlMqOVXEsp-1" source="5u7Is4vucsxlMqOVXEsp-68" target="5u7Is4vucsxlMqOVXEsp-101" edge="1">
          <mxGeometry relative="1" as="geometry">
            <mxPoint x="143" y="150" as="sourcePoint" />
            <mxPoint x="142" y="340" as="targetPoint" />
            <Array as="points">
              <mxPoint x="102" y="130" />
              <mxPoint x="102" y="350" />
            </Array>
          </mxGeometry>
        </mxCell>
      </root>
    </mxGraphModel>
  </diagram>
</mxfile>
